<svg xmlns="http://www.w3.org/2000/svg" xmlns:xlink="http://www.w3.org/1999/xlink" id="Layer_1" x="0" y="0" enable-background="new 0 0 285.7 306.3" version="1.1" viewBox="0 0 285.7 306.3" xml:space="preserve"><style type="text/css">.st0{fill:none;stroke:#ccc;stroke-width:2.5;stroke-linecap:round;stroke-linejoin:round}.st1{fill:#ccc}.st2{fill:#1478a6;stroke:#fff;stroke-width:1.1418;stroke-miterlimit:10}.st3{fill:#6c9050}.st4{font-family:&apos;Lato-Bold&apos;}.st5{font-size:18.501px}.st6{fill:#323232}.st7{font-family:&apos;Lato-Light&apos;}.st8{font-size:14px}.st9{fill:#1478a6}.st10{fill:#8abdd5}.st11{fill:#fff}.st12{fill:none;stroke:#1478a6;stroke-width:1.9554;stroke-linecap:round;stroke-linejoin:round;stroke-miterlimit:10}.st13{fill:#90ab7b}.st14{fill:#91ac7c}.st15{fill:#7b9b61}</style><g><g><path d="M183.1,72.1h-23.8c-5.8,0-10.6,4.7-10.6,10.6v26.1" class="st0"/><g><polygon points="145 107.6 148.7 114.1 152.5 107.6" class="st1"/></g></g></g><g><g><path d="M103,72.1h23.8c5.8,0,10.6,4.7,10.6,10.6v26.1" class="st0"/><g><polygon points="133.6 107.6 137.3 114.1 141.1 107.6" class="st1"/></g></g></g><circle cx="142.9" cy="180.5" r="57.1" class="st2"/><text transform="matrix(1 0 0 1 8.7096 16.0326)"><tspan x="0" y="0" class="st3 st4 st5">Companies</tspan><tspan x="-9.2" y="17.8" class="st6 st7 st8">disclose payments</tspan></text><text transform="matrix(1 0 0 1 174.1949 15.9388)"><tspan x="0" y="0" class="st3 st4 st5">Governments</tspan><tspan x="6.4" y="17.8" class="st6 st7 st8">disclose receipts</tspan></text><text transform="matrix(1 0 0 1 95.923 265.9793)"><tspan x="0" y="0" class="st9 st4 st5">EITI Report</tspan><tspan x="-38.7" y="19.8" class="st6 st7 st8">payments are independently </tspan><tspan x="-21.5" y="36.6" class="st6 st7 st8">verified and reconciled</tspan></text><g><path d="M148.4,157.5h-26.8c-1,0-1.9,0.8-1.9,1.9v47.7c0,1,0.8,1.9,1.9,1.9h38.7c1,0,1.9-0.8,1.9-1.9v-40.4 L148.4,157.5z" class="st10"/><path d="M165.6,200.5c0,1-0.8,1.8-1.8,1.8h-35.5c-1,0-1.8-0.8-1.8-1.8V153c0-1,0.8-1.8,1.8-1.8h28.2 c0.5,0,0.7,0.2,1,0.5l7.5,7.3c0.3,0.3,0.5,0.8,0.5,1.3V200.5z" class="st11"/><line x1="156.8" x2="136.2" y1="175.6" y2="175.6" class="st12"/><line x1="156.8" x2="136.2" y1="183.8" y2="183.8" class="st12"/><line x1="156.8" x2="136.2" y1="192.1" y2="192.1" class="st12"/><line x1="148.8" x2="136" y1="167.4" y2="167.4" class="st12"/><path d="M156.5,160.3l0-9.1c0.5,0,0.7,0.2,1,0.5l7.5,7.3c0.3,0.3,0.5,0.8,0.5,1.3H156.5z" class="st10"/></g><g><path d="M203.4,58.4l24.1-15.3c1.4-0.9,3.2-0.9,4.6,0l24.1,15.3c1.5,0.9,0.8,3.2-0.9,3.2h-51 C202.6,61.6,202,59.3,203.4,58.4z M233.5,53.5c0-2-1.6-3.6-3.6-3.6s-3.6,1.6-3.6,3.6s1.6,3.6,3.6,3.6S233.5,55.5,233.5,53.5z" class="st3"/><path d="M209.9,84.9h-3.4c-0.5,0-0.9-0.4-0.9-0.9V66.2c0-0.5,0.4-0.9,0.9-0.9h3.4c0.5,0,0.9,0.4,0.9,0.9v17.9 C210.8,84.5,210.4,84.9,209.9,84.9z" class="st13"/><path d="M220.7,84.9h-3.4c-0.5,0-0.9-0.4-0.9-0.9V66.2c0-0.5,0.4-0.9,0.9-0.9h3.4c0.5,0,0.9,0.4,0.9,0.9v17.9 C221.6,84.5,221.2,84.9,220.7,84.9z" class="st13"/><path d="M231.6,84.9h-3.4c-0.5,0-0.9-0.4-0.9-0.9V66.2c0-0.5,0.4-0.9,0.9-0.9h3.4c0.5,0,0.9,0.4,0.9,0.9v17.9 C232.4,84.5,232.1,84.9,231.6,84.9z" class="st13"/><path d="M242.4,84.9H239c-0.5,0-0.9-0.4-0.9-0.9V66.2c0-0.5,0.4-0.9,0.9-0.9h3.4c0.5,0,0.9,0.4,0.9,0.9v17.9 C243.3,84.5,242.9,84.9,242.4,84.9z" class="st13"/><path d="M253.3,84.9h-3.4c-0.5,0-0.9-0.4-0.9-0.9V66.2c0-0.5,0.4-0.9,0.9-0.9h3.4c0.5,0,0.9,0.4,0.9,0.9v17.9 C254.1,84.5,253.7,84.9,253.3,84.9z" class="st13"/><path d="M257.1,89.3L257.1,89.3c0,0.7-0.5,1.2-1.2,1.2h-52.1c-0.7,0-1.2-0.5-1.2-1.2l0,0c0-0.7,0.5-1.2,1.2-1.2h52.1 C256.6,88.1,257.1,88.7,257.1,89.3z" class="st3"/><path d="M260.9,94.1v0.4c0,1-0.8,1.8-1.8,1.8h-58.6c-1,0-1.8-0.8-1.8-1.8v-0.4c0-1,0.8-1.8,1.8-1.8h58.6 C260.1,92.3,260.9,93.1,260.9,94.1z" class="st3"/></g><g><path d="M61.9,65.2h-9.7c-0.5,0-0.9-0.4-0.9-0.9V60c0-0.4,0.2-0.7,0.5-0.8l8.8-3.4c0.6-0.2,1.2,0.2,1.2,0.8V65.2z" class="st3"/><path d="M71.7,65.2H62c-0.5,0-0.8-0.4-0.8-0.8v-4.4c0-0.3,0.2-0.6,0.5-0.8l8.9-3.4c0.5-0.2,1.1,0.2,1.1,0.8V65.2z" class="st3"/><path d="M80.7,65.2h-8.8c-0.5,0-0.9-0.4-0.9-0.9V60c0-0.4,0.2-0.7,0.5-0.8l8.8-3.4c0.6-0.2,1.2,0.2,1.2,0.8v7.8 C81.6,64.8,81.2,65.2,80.7,65.2z" class="st3"/><path d="M34.8,79.4h-5.6l0.7-26.7c0-0.3,0.3-0.6,0.7-0.6h3c0.4,0,0.7,0.3,0.7,0.6L34.8,79.4z" class="st3"/><path d="M42.2,79.4h-5.6l0.7-26.7c0-0.3,0.3-0.6,0.7-0.6h3c0.4,0,0.7,0.3,0.7,0.6L42.2,79.4z" class="st3"/><path d="M85,67.2H45.6c-0.5,0-1,0.4-1,1v10.2c0,0.5,0.4,1,1,1H85c0.5,0,1-0.4,1-1V68.2C86,67.6,85.6,67.2,85,67.2z M53.4,75.2h-3.9v-3.9h3.9V75.2z M60.4,75.2h-3.9v-3.9h3.9V75.2z M67.3,75.2h-3.9v-3.9h3.9V75.2z M74.2,75.2h-3.9v-3.9h3.9V75.2z M81.1,75.2h-3.9v-3.9h3.9V75.2z" class="st14"/><path d="M87.4,91.3H28.9c-0.5,0-0.8-0.4-0.8-0.8v-8.3c0-0.5,0.4-0.8,0.8-0.8h58.6c0.5,0,0.8,0.4,0.8,0.8v8.3 C88.2,90.9,87.9,91.3,87.4,91.3z" class="st15"/></g></svg>