<svg xmlns="http://www.w3.org/2000/svg" id="root" version="1.2" viewBox="838.514 194.268 11.543 14.233"><g id="counties"><path id="county-44007" fill="inherit" stroke="inherit" stroke-width="inherit" d="M844.198 194.443l1.855 3.572-.344.541-.582-.062-.754.818-4.386 1.303-1.473-5.128 3.975-1.22z" class="county feature" vector-effect="non-scaling-stroke"><title>Providence County</title></path><path id="county-44001" fill="inherit" stroke="inherit" stroke-width="inherit" d="M847.571 198.837l-.11 1.397-1.752-1.678.344-.54z" class="county feature" vector-effect="non-scaling-stroke"><title>Bristol County</title></path><path id="county-44003" fill="inherit" stroke="inherit" stroke-width="inherit" d="M845.127 198.494l.027 2.199-.51 1.069-4.047 1.176-.18-.79-.43-1.533 4.386-1.303z" class="county feature" vector-effect="non-scaling-stroke"><title>Kent County</title></path><path id="county-44005" fill="inherit" stroke="inherit" stroke-width="inherit" d="M848.068 200.16l.319 2.836-1.142-.223zm1.989 2.216l-.806.999-1.078-3.958.917.043z" class="county feature" vector-effect="non-scaling-stroke"><title>Newport County</title></path><path id="county-44009" fill="inherit" stroke="inherit" stroke-width="inherit" d="M841.077 208.01l.264-1.76-.744-3.312 4.048-1.176.51-1.07 1 3.257-.39 2.019-4.715 2.533z" class="county feature" vector-effect="non-scaling-stroke"><title>Washington County</title></path></g><path id="counties-mesh" fill="inherit" stroke="inherit" stroke-width="inherit" d="M846.053 198.015l-.344.541-.582-.062-.754.818-4.386 1.303m5.14-2.121l.027 2.199-.51 1.069-4.047 1.176-.18-.79-.43-1.533-1.473-5.128 3.975-1.22 1.709.176 1.855 3.572 1.518.822-.11 1.397-1.752-1.678m-.555 2.137l1 3.256-.39 2.019-4.714 2.533.027-.49.264-1.76-.744-3.313m7.471-2.778l.319 2.836-1.142-.223.823-2.613m.105-.743l.917.043.967 2.916-.806.999-1.078-3.958" class="counties mesh" vector-effect="non-scaling-stroke"/></svg>