<svg xmlns="http://www.w3.org/2000/svg" id="root" version="1.2" viewBox="419.458 272.732 109.615 59.375"><g id="counties"><path id="county-20023" fill="inherit" stroke="inherit" stroke-width="inherit" d="M431.99 273.288l-.5 8.17-9.055-.544.007-.11.489-8.072z" class="county feature" vector-effect="non-scaling-stroke"><title>Cheyenne County</title></path><path id="county-20153" fill="inherit" stroke="inherit" stroke-width="inherit" d="M441.227 273.788l.28.017-.434 8.171-9.231-.498-.353-.02.502-8.17 1.214.066z" class="county feature" vector-effect="non-scaling-stroke"><title>Rawlins County</title></path><path id="county-20089" fill="inherit" stroke="inherit" stroke-width="inherit" d="M481.28 275.202l-.134 6.565-.033 1.636-7.922-.195-.256-.01.226-8.19 3.266.076z" class="county feature" vector-effect="non-scaling-stroke"><title>Jewell County</title></path><path id="county-20183" fill="inherit" stroke="inherit" stroke-width="inherit" d="M473.161 275.009l-.226 8.19-7.69-.232-.307-.011.248-8.182 4.832.146z" class="county feature" vector-effect="non-scaling-stroke"><title>Smith County</title></path><path id="county-20157" fill="inherit" stroke="inherit" stroke-width="inherit" d="M489.251 275.343l-.084 6.558-8.021-.134.133-6.565 1.557.031z" class="county feature" vector-effect="non-scaling-stroke"><title>Republic County</title></path><path id="county-20201" fill="inherit" stroke="inherit" stroke-width="inherit" d="M495.672 275.428l1.567.015-.08 8.2-2.176-.02-5.84-.083.024-1.64.084-6.557z" class="county feature" vector-effect="non-scaling-stroke"><title>Washington County</title></path><path id="county-20039" fill="inherit" stroke="inherit" stroke-width="inherit" d="M449.231 274.176l.224.012-.396 8.185-7.69-.382-.296-.015.434-8.17z" class="county feature" vector-effect="non-scaling-stroke"><title>Decatur County</title></path><path id="county-20137" fill="inherit" stroke="inherit" stroke-width="inherit" d="M457.28 274.506l-.354 8.179-7.6-.309-.267-.003.396-8.185 7.783.316z" class="county feature" vector-effect="non-scaling-stroke"><title>Norton County</title></path><path id="county-20147" fill="inherit" stroke="inherit" stroke-width="inherit" d="M465.186 274.774l-.248 8.182-7.639-.255-.373-.016.353-8.18 6.32.22z" class="county feature" vector-effect="non-scaling-stroke"><title>Phillips County</title></path><path id="county-20117" fill="inherit" stroke="inherit" stroke-width="inherit" d="M502.087 275.484l3.18.015-.015 8.192-4.889-.023-3.204-.025.08-8.2z" class="county feature" vector-effect="non-scaling-stroke"><title>Marshall County</title></path><path id="county-20013" fill="inherit" stroke="inherit" stroke-width="inherit" d="M518.018 275.487l.046 6.542-3.196.018-3.2.01-.005-6.55z" class="county feature" vector-effect="non-scaling-stroke"><title>Brown County</title></path><path id="county-20131" fill="inherit" stroke="inherit" stroke-width="inherit" d="M508.509 275.507h3.154l.005 6.55-.002 1.631-3.517.01-2.897-.007.015-8.192z" class="county feature" vector-effect="non-scaling-stroke"><title>Nemaha County</title></path><path id="county-20043" fill="inherit" stroke="inherit" stroke-width="inherit" d="M518.466 275.483l3.19 2.577 1.293-.692 1.678 1.438-.086 1.77-1.026-.342-1.386 2.315-.865-.54-3.2.02-.046-6.542z" class="county feature" vector-effect="non-scaling-stroke"><title>Doniphan County</title></path><path id="county-20029" fill="inherit" stroke="inherit" stroke-width="inherit" d="M489.167 281.9l-.024 1.64-.091 4.92-8.008-.148.069-4.91.033-1.635z" class="county feature" vector-effect="non-scaling-stroke"><title>Cloud County</title></path><path id="county-20085" fill="inherit" stroke="inherit" stroke-width="inherit" d="M514.868 282.047l-.067 4.41-.26 3.824-6.389.007-.003-6.59 3.517-.01.002-1.631z" class="county feature" vector-effect="non-scaling-stroke"><title>Jackson County</title></path><path id="county-20005" fill="inherit" stroke="inherit" stroke-width="inherit" d="M522.129 282.55l-.67 1.706 1.934 2.138-3.026.023-5.566.04.067-4.41 3.196-.018 3.2-.02z" class="county feature" vector-effect="non-scaling-stroke"><title>Atchison County</title></path><path id="county-20163" fill="inherit" stroke="inherit" stroke-width="inherit" d="M465.245 282.967l-.304 8.196-7.803-.263-.196-.007.357-8.192 7.639.255z" class="county feature" vector-effect="non-scaling-stroke"><title>Rooks County</title></path><path id="county-20181" fill="inherit" stroke="inherit" stroke-width="inherit" d="M431.49 281.458l.352.02-.499 8.152-1.24-.065-8.149-.464.48-8.187z" class="county feature" vector-effect="non-scaling-stroke"><title>Sherman County</title></path><path id="county-20193" fill="inherit" stroke="inherit" stroke-width="inherit" d="M441.073 281.976l.297.015-.423 8.184-1.3-.066-8.304-.48.499-8.151z" class="county feature" vector-effect="non-scaling-stroke"><title>Thomas County</title></path><path id="county-20141" fill="inherit" stroke="inherit" stroke-width="inherit" d="M472.935 283.198l.256.01-.213 6.552-.043 1.642-7.85-.237-.144-.002.304-8.196z" class="county feature" vector-effect="non-scaling-stroke"><title>Osborne County</title></path><path id="county-20179" fill="inherit" stroke="inherit" stroke-width="inherit" d="M449.06 282.373l.265.003-.4 8.197-7.978-.398.423-8.184z" class="county feature" vector-effect="non-scaling-stroke"><title>Sheridan County</title></path><path id="county-20027" fill="inherit" stroke="inherit" stroke-width="inherit" d="M494.983 283.624l-.102 6.527-.042 1.655-5.855-.065.068-3.282.091-4.92z" class="county feature" vector-effect="non-scaling-stroke"><title>Clay County</title></path><path id="county-20123" fill="inherit" stroke="inherit" stroke-width="inherit" d="M481.113 283.403l-.07 4.91-.043 1.644-8.022-.197.213-6.552z" class="county feature" vector-effect="non-scaling-stroke"><title>Mitchell County</title></path><path id="county-20065" fill="inherit" stroke="inherit" stroke-width="inherit" d="M457.3 282.701l-.358 8.192-7.78-.314-.237-.006.4-8.197 7.601.309z" class="county feature" vector-effect="non-scaling-stroke"><title>Graham County</title></path><path id="county-20161" fill="inherit" stroke="inherit" stroke-width="inherit" d="M500.363 283.668l-2.091 3.054 2.382 4.181 2.428.201-.036 2.44-1.583-.015.003-.549-5.023-.33.048-2.465-1.61-.034.102-6.527 2.176.019z" class="county feature" vector-effect="non-scaling-stroke"><title>Riley County</title></path><path id="county-20149" fill="inherit" stroke="inherit" stroke-width="inherit" d="M505.252 283.691l2.897.007.003 6.59-.093 1.646-.612-1.216-2.274-.288-2.091.674-2.428-.2-2.382-4.182 2.091-3.054z" class="county feature" vector-effect="non-scaling-stroke"><title>Pottawatomie County</title></path><path id="county-20087" fill="inherit" stroke="inherit" stroke-width="inherit" d="M520.367 286.417l-.032 7.072-4.498-.206-1.402-.164.106-2.838.26-3.825z" class="county feature" vector-effect="non-scaling-stroke"><title>Jefferson County</title></path><path id="county-20103" fill="inherit" stroke="inherit" stroke-width="inherit" d="M523.393 286.394l1.297.799-.276 1.436 1.813 1.878-1.797-.052-.083 3.987-2.119.198-1.86.349-.033-1.5.032-7.072z" class="county feature" vector-effect="non-scaling-stroke"><title>Leavenworth County</title></path><path id="county-20143" fill="inherit" stroke="inherit" stroke-width="inherit" d="M489.052 288.46l-.068 3.281-.058 3.283-8-.149.074-4.918.044-1.645z" class="county feature" vector-effect="non-scaling-stroke"><title>Ottawa County</title></path><path id="county-20061" fill="inherit" stroke="inherit" stroke-width="inherit" d="M501.463 293.53l-.027 3.278-5.593-.048-1.036-1.8.032-3.154.042-1.655 1.61.034-.048 2.466 5.023.33z" class="county feature" vector-effect="non-scaling-stroke"><title>Geary County</title></path><path id="county-20105" fill="inherit" stroke="inherit" stroke-width="inherit" d="M481 289.957l-.074 4.918-.039 1.644-8.009-.18.057-4.937.043-1.642z" class="county feature" vector-effect="non-scaling-stroke"><title>Lincoln County</title></path><path id="county-20177" fill="inherit" stroke="inherit" stroke-width="inherit" d="M514.54 290.281l-.105 2.838 1.402.164.014 3.524-6.42.015-.007-4.311-1.365-.577.093-1.646z" class="county feature" vector-effect="non-scaling-stroke"><title>Shawnee County</title></path><path id="county-20197" fill="inherit" stroke="inherit" stroke-width="inherit" d="M508.059 291.934l1.365.577.007 4.311.012 2.468-5.872-.008-.537-1.633-1.598-.84.027-3.28 1.583.016.036-2.441 2.091-.674 2.274.288z" class="county feature" vector-effect="non-scaling-stroke"><title>Wabaunsee County</title></path><path id="county-20209" fill="inherit" stroke="inherit" stroke-width="inherit" d="M526.227 290.507l2.49.707-.07.872.02 1.306-3.814-.232-.506 1.282.083-3.987z" class="county feature" vector-effect="non-scaling-stroke"><title>Wyandotte County</title></path><path id="county-20109" fill="inherit" stroke="inherit" stroke-width="inherit" d="M439.646 290.11l-.512 8.157-4.459-.247-5.131-.28.56-8.175 1.239.065z" class="county feature" vector-effect="non-scaling-stroke"><title>Logan County</title></path><path id="county-20199" fill="inherit" stroke="inherit" stroke-width="inherit" d="M430.104 289.565l-.56 8.175-1.196-.06-6.89-.38.403-6.578.093-1.62z" class="county feature" vector-effect="non-scaling-stroke"><title>Wallace County</title></path><path id="county-20051" fill="inherit" stroke="inherit" stroke-width="inherit" d="M464.94 291.163l.145.002-.335 8.22-7.83-.269-.186-.006.404-8.21z" class="county feature" vector-effect="non-scaling-stroke"><title>Ellis County</title></path><path id="county-20063" fill="inherit" stroke="inherit" stroke-width="inherit" d="M440.947 290.175l7.978.398.237.006-.44 8.19-1.346-.076-6.353-.334-1.889-.092.512-8.158z" class="county feature" vector-effect="non-scaling-stroke"><title>Gove County</title></path><path id="county-20041" fill="inherit" stroke="inherit" stroke-width="inherit" d="M494.839 291.806l-.032 3.155 1.036 1.8-.548 1.086-.084 3.824-6.38-.077.095-6.57.058-3.283z" class="county feature" vector-effect="non-scaling-stroke"><title>Dickinson County</title></path><path id="county-20167" fill="inherit" stroke="inherit" stroke-width="inherit" d="M472.935 291.402l-.057 4.937-.101 3.278-7.888-.226-.14-.006.336-8.22z" class="county feature" vector-effect="non-scaling-stroke"><title>Russell County</title></path><path id="county-20195" fill="inherit" stroke="inherit" stroke-width="inherit" d="M456.942 290.893l.196.007-.404 8.21-8.013-.341.44-8.19z" class="county feature" vector-effect="non-scaling-stroke"><title>Trego County</title></path><path id="county-20045" fill="inherit" stroke="inherit" stroke-width="inherit" d="M520.335 293.489l.033 1.5 1.86-.349.046 4.592-6.41.045-.013-2.47-.014-3.524z" class="county feature" vector-effect="non-scaling-stroke"><title>Douglas County</title></path><path id="county-20091" fill="inherit" stroke="inherit" stroke-width="inherit" d="M528.667 293.392l.044 3.713.014 2.058-6.451.07-.046-4.593 2.12-.198.505-1.282z" class="county feature" vector-effect="non-scaling-stroke"><title>Johnson County</title></path><path id="county-20169" fill="inherit" stroke="inherit" stroke-width="inherit" d="M488.926 295.024l-.095 6.57-7.987-.149.043-4.926.039-1.644z" class="county feature" vector-effect="non-scaling-stroke"><title>Saline County</title></path><path id="county-20127" fill="inherit" stroke="inherit" stroke-width="inherit" d="M501.436 296.808l1.598.84.537 1.634-.03 4.099-6.746-.056-1.59-.014.006-1.64.084-3.824.548-1.087z" class="county feature" vector-effect="non-scaling-stroke"><title>Morris County</title></path><path id="county-20053" fill="inherit" stroke="inherit" stroke-width="inherit" d="M480.887 296.52l-.043 4.925-.023 1.644-8.047-.17.003-3.302.101-3.278z" class="county feature" vector-effect="non-scaling-stroke"><title>Ellsworth County</title></path><path id="county-20139" fill="inherit" stroke="inherit" stroke-width="inherit" d="M515.85 296.807l.014 2.47-.08 5.75-6.405.014.064-5.751-.012-2.468z" class="county feature" vector-effect="non-scaling-stroke"><title>Osage County</title></path><path id="county-20111" fill="inherit" stroke="inherit" stroke-width="inherit" d="M509.443 299.29l-.064 5.751-.123 4.964-5.787-.062.072-6.562.03-4.099z" class="county feature" vector-effect="non-scaling-stroke"><title>Lyon County</title></path><path id="county-20059" fill="inherit" stroke="inherit" stroke-width="inherit" d="M522.274 299.232l-.07 6.575-6.415.042-.004-.822.079-5.75z" class="county feature" vector-effect="non-scaling-stroke"><title>Franklin County</title></path><path id="county-20121" fill="inherit" stroke="inherit" stroke-width="inherit" d="M528.725 299.163l.015 4.913.025 1.674-6.561.057.07-6.575z" class="county feature" vector-effect="non-scaling-stroke"><title>Miami County</title></path><path id="county-20171" fill="inherit" stroke="inherit" stroke-width="inherit" d="M439.134 298.267l1.889.092-.405 8.209-6.022-.318-.328-.016.407-8.214z" class="county feature" vector-effect="non-scaling-stroke"><title>Scott County</title></path><path id="county-20101" fill="inherit" stroke="inherit" stroke-width="inherit" d="M447.376 298.693l-.325 8.214-6.433-.34.405-8.208z" class="county feature" vector-effect="non-scaling-stroke"><title>Lane County</title></path><path id="county-20071" fill="inherit" stroke="inherit" stroke-width="inherit" d="M428.348 297.68l-.492 8.219-6.915-.409.013-.12.41-6.52.094-1.55z" class="county feature" vector-effect="non-scaling-stroke"><title>Greeley County</title></path><path id="county-20203" fill="inherit" stroke="inherit" stroke-width="inherit" d="M434.675 298.02l-.407 8.214-6.043-.316-.37-.02.493-8.218 1.196.06z" class="county feature" vector-effect="non-scaling-stroke"><title>Wichita County</title></path><path id="county-20135" fill="inherit" stroke="inherit" stroke-width="inherit" d="M448.721 298.769l8.013.341.187.006-.242 6.543-.052 1.644-9.326-.384-.25-.012.325-8.214z" class="county feature" vector-effect="non-scaling-stroke"><title>Ness County</title></path><path id="county-20009" fill="inherit" stroke="inherit" stroke-width="inherit" d="M472.777 299.617l-.003 3.302-.119 4.921-6.283-.184-1.74-.057.053-1.642.204-6.566z" class="county feature" vector-effect="non-scaling-stroke"><title>Barton County</title></path><path id="county-20165" fill="inherit" stroke="inherit" stroke-width="inherit" d="M464.75 299.385l.14.006-.205 6.566-8.006-.298.242-6.543z" class="county feature" vector-effect="non-scaling-stroke"><title>Rush County</title></path><path id="county-20113" fill="inherit" stroke="inherit" stroke-width="inherit" d="M488.831 301.594l-.118 8.215-4.8-.08-3.193-.06.101-6.58.023-1.644z" class="county feature" vector-effect="non-scaling-stroke"><title>McPherson County</title></path><path id="county-20115" fill="inherit" stroke="inherit" stroke-width="inherit" d="M495.211 301.671l-.006 1.64 1.59.014-.375 8.234-4.539-.086.015-1.64-3.183-.024.118-8.215z" class="county feature" vector-effect="non-scaling-stroke"><title>Marion County</title></path><path id="county-20017" fill="inherit" stroke="inherit" stroke-width="inherit" d="M503.54 303.38l-.07 6.563-.023 1.656-2.398-.02-4.629-.02.375-8.234z" class="county feature" vector-effect="non-scaling-stroke"><title>Chase County</title></path><path id="county-20159" fill="inherit" stroke="inherit" stroke-width="inherit" d="M480.821 303.089l-.101 6.58-8.009-.165-.056-1.664.119-4.921z" class="county feature" vector-effect="non-scaling-stroke"><title>Rice County</title></path><path id="county-20031" fill="inherit" stroke="inherit" stroke-width="inherit" d="M515.785 305.027l.004.822-.122 6.64-6.41-.019v-2.465l.122-4.964z" class="county feature" vector-effect="non-scaling-stroke"><title>Coffey County</title></path><path id="county-20003" fill="inherit" stroke="inherit" stroke-width="inherit" d="M522.204 305.807l-.112 6.646-6.425.036.122-6.64z" class="county feature" vector-effect="non-scaling-stroke"><title>Anderson County</title></path><path id="county-20107" fill="inherit" stroke="inherit" stroke-width="inherit" d="M528.765 305.75l.074 6.198.007.435-6.754.07.112-6.646z" class="county feature" vector-effect="non-scaling-stroke"><title>Linn County</title></path><path id="county-20145" fill="inherit" stroke="inherit" stroke-width="inherit" d="M464.685 305.957l-.052 1.642 1.74.057-.156 4.914-1.59-.046-4.778-.17.047-1.629-3.179-.12-.09-3.302.052-1.644z" class="county feature" vector-effect="non-scaling-stroke"><title>Pawnee County</title></path><path id="county-20093" fill="inherit" stroke="inherit" stroke-width="inherit" d="M434.596 306.25l-.451 8.201.116 1.757-6.39-.357-.13-1.73.484-8.203 6.043.316z" class="county feature" vector-effect="non-scaling-stroke"><title>Kearny County</title></path><path id="county-20055" fill="inherit" stroke="inherit" stroke-width="inherit" d="M440.618 306.568l6.433.339.25.012-.22 4.92-6.362-.325-.078 5.023-6.38-.329-.116-1.757.451-8.2z" class="county feature" vector-effect="non-scaling-stroke"><title>Finney County</title></path><path id="county-20075" fill="inherit" stroke="inherit" stroke-width="inherit" d="M428.225 305.918l-.484 8.202.13 1.731-7.52-.5.59-9.86 6.915.408z" class="county feature" vector-effect="non-scaling-stroke"><title>Hamilton County</title></path><path id="county-20185" fill="inherit" stroke="inherit" stroke-width="inherit" d="M472.655 307.84l.056 1.664-.165 6.565-7.898-.244-.02-3.301 1.589.046.155-4.914z" class="county feature" vector-effect="non-scaling-stroke"><title>Stafford County</title></path><path id="county-20083" fill="inherit" stroke="inherit" stroke-width="inherit" d="M456.627 307.303l.09 3.302-.129 3.285-9.58-.411.074-1.64.219-4.92z" class="county feature" vector-effect="non-scaling-stroke"><title>Hodgeman County</title></path><path id="county-20079" fill="inherit" stroke="inherit" stroke-width="inherit" d="M491.881 311.473l-.035 3.3-8.022-.116.089-4.929 4.8.081 3.183.024z" class="county feature" vector-effect="non-scaling-stroke"><title>Harvey County</title></path><path id="county-20073" fill="inherit" stroke="inherit" stroke-width="inherit" d="M503.47 309.943l5.786.062.001 2.465-.024 5.768.001 2.463-8.271-.082.086-9.04 2.398.02z" class="county feature" vector-effect="non-scaling-stroke"><title>Greenwood County</title></path><path id="county-20155" fill="inherit" stroke="inherit" stroke-width="inherit" d="M480.72 309.67l3.193.058-.089 4.929-.007 3.345-1.596-.006-9.605-.193-.07-1.734.165-6.565z" class="county feature" vector-effect="non-scaling-stroke"><title>Reno County</title></path><path id="county-20015" fill="inherit" stroke="inherit" stroke-width="inherit" d="M496.42 311.56l4.63.018-.087 9.04-.02 2.464-9.207-.066.11-8.243.035-3.3z" class="county feature" vector-effect="non-scaling-stroke"><title>Butler County</title></path><path id="county-20047" fill="inherit" stroke="inherit" stroke-width="inherit" d="M464.627 312.524l.021 3.301-.055 1.74-7.979-.312-.026-3.363.129-3.285 3.18.12-.048 1.628z" class="county feature" vector-effect="non-scaling-stroke"><title>Edwards County</title></path><path id="county-20207" fill="inherit" stroke="inherit" stroke-width="inherit" d="M515.667 312.489l-.071 5.762-6.363-.013.024-5.768z" class="county feature" vector-effect="non-scaling-stroke"><title>Woodson County</title></path><path id="county-20001" fill="inherit" stroke="inherit" stroke-width="inherit" d="M522.092 312.453l-.092 5.755-6.404.043.07-5.762z" class="county feature" vector-effect="non-scaling-stroke"><title>Allen County</title></path><path id="county-20011" fill="inherit" stroke="inherit" stroke-width="inherit" d="M528.846 312.383l.042 6.863-6.877.056-.01-1.094.09-5.755z" class="county feature" vector-effect="non-scaling-stroke"><title>Bourbon County</title></path><path id="county-20069" fill="inherit" stroke="inherit" stroke-width="inherit" d="M447.082 311.84l-.073 1.639-.21 8.273-6.4-.291.242-4.924.078-5.023z" class="county feature" vector-effect="non-scaling-stroke"><title>Gray County</title></path><path id="county-20057" fill="inherit" stroke="inherit" stroke-width="inherit" d="M456.588 313.89l.026 3.363-.14 5.037-8.076-.46-1.6-.078.21-8.273z" class="county feature" vector-effect="non-scaling-stroke"><title>Ford County</title></path><path id="county-20173" fill="inherit" stroke="inherit" stroke-width="inherit" d="M491.846 314.773l-.11 8.243-9.603-.124.088-4.896 1.596.006.007-3.345z" class="county feature" vector-effect="non-scaling-stroke"><title>Sedgwick County</title></path><path id="county-20151" fill="inherit" stroke="inherit" stroke-width="inherit" d="M472.546 316.069l.07 1.734-.128 4.932-8.047-.221.152-4.95.055-1.739z" class="county feature" vector-effect="non-scaling-stroke"><title>Pratt County</title></path><path id="county-20187" fill="inherit" stroke="inherit" stroke-width="inherit" d="M427.872 315.851l-.366 6.55-.447-.027-7.117-.448.306-4.801.102-1.774z" class="county feature" vector-effect="non-scaling-stroke"><title>Stanton County</title></path><path id="county-20067" fill="inherit" stroke="inherit" stroke-width="inherit" d="M434.26 316.208l-.351 6.565-6.403-.371.366-6.551z" class="county feature" vector-effect="non-scaling-stroke"><title>Grant County</title></path><path id="county-20081" fill="inherit" stroke="inherit" stroke-width="inherit" d="M440.64 316.537l-.24 4.924-.081 1.642-6.094-.314-.316-.016.352-6.565z" class="county feature" vector-effect="non-scaling-stroke"><title>Haskell County</title></path><path id="county-20097" fill="inherit" stroke="inherit" stroke-width="inherit" d="M464.593 317.565l-.152 4.949-.03 1.625-7.81-.21-.128-1.639.141-5.037z" class="county feature" vector-effect="non-scaling-stroke"><title>Kiowa County</title></path><path id="county-20095" fill="inherit" stroke="inherit" stroke-width="inherit" d="M482.22 317.996l-.087 4.896-.026 1.658-7.974-.133-1.693-.044.048-1.638.128-4.932z" class="county feature" vector-effect="non-scaling-stroke"><title>Kingman County</title></path><path id="county-20205" fill="inherit" stroke="inherit" stroke-width="inherit" d="M515.596 318.251l.033 6.576-6.403-.032.008-4.094v-2.463z" class="county feature" vector-effect="non-scaling-stroke"><title>Wilson County</title></path><path id="county-20133" fill="inherit" stroke="inherit" stroke-width="inherit" d="M522 318.208l.01 1.094.048 5.482-6.36.043h-.07l-.032-6.576z" class="county feature" vector-effect="non-scaling-stroke"><title>Neosho County</title></path><path id="county-20037" fill="inherit" stroke="inherit" stroke-width="inherit" d="M528.888 319.246l.005.368.08 5.457.007.486-6.719.053-.203-.826-.047-5.482z" class="county feature" vector-effect="non-scaling-stroke"><title>Crawford County</title></path><path id="county-20049" fill="inherit" stroke="inherit" stroke-width="inherit" d="M509.234 320.7l-.008 4.095-.042 1.648-8.242-.087.002-3.274.019-2.463z" class="county feature" vector-effect="non-scaling-stroke"><title>Elk County</title></path><path id="county-20035" fill="inherit" stroke="inherit" stroke-width="inherit" d="M500.944 323.082l-.002 3.274-.043 5.733-3.313-.027-5.88-.06.03-8.986z" class="county feature" vector-effect="non-scaling-stroke"><title>Cowley County</title></path><path id="county-20191" fill="inherit" stroke="inherit" stroke-width="inherit" d="M491.736 323.016l-.03 8.986-4.644-.058-5.025-.086.07-7.308.026-1.658z" class="county feature" vector-effect="non-scaling-stroke"><title>Sumner County</title></path><path id="county-20119" fill="inherit" stroke="inherit" stroke-width="inherit" d="M446.799 321.752l1.6.078-.126 8.915-8.026-.329.351-7.299-.279-.014.08-1.642z" class="county feature" vector-effect="non-scaling-stroke"><title>Meade County</title></path><path id="county-20025" fill="inherit" stroke="inherit" stroke-width="inherit" d="M456.473 322.29l.129 1.639-.237 7.19-6.81-.31-1.282-.064.125-8.915z" class="county feature" vector-effect="non-scaling-stroke"><title>Clark County</title></path><path id="county-20007" fill="inherit" stroke="inherit" stroke-width="inherit" d="M472.488 322.735l-.048 1.638 1.693.044-.143 7.275-2.915-.086-6.725-.21.06-7.257.031-1.625z" class="county feature" vector-effect="non-scaling-stroke"><title>Barber County</title></path><path id="county-20129" fill="inherit" stroke="inherit" stroke-width="inherit" d="M427.059 322.374l-.418 7.402-6.972-.383-.211-.022.484-7.445z" class="county feature" vector-effect="non-scaling-stroke"><title>Morton County</title></path><path id="county-20189" fill="inherit" stroke="inherit" stroke-width="inherit" d="M433.909 322.773l.316.016-.376 7.342-7.208-.355.418-7.402.447.028z" class="county feature" vector-effect="non-scaling-stroke"><title>Stevens County</title></path><path id="county-20175" fill="inherit" stroke="inherit" stroke-width="inherit" d="M440.319 323.103l.28.014-.352 7.3-4.613-.202-1.785-.084.376-7.342z" class="county feature" vector-effect="non-scaling-stroke"><title>Seward County</title></path><path id="county-20125" fill="inherit" stroke="inherit" stroke-width="inherit" d="M509.226 324.795l6.403.032h.068l.016 7.254-3.902.015-2.625.007-.002-5.66z" class="county feature" vector-effect="non-scaling-stroke"><title>Montgomery County</title></path><path id="county-20077" fill="inherit" stroke="inherit" stroke-width="inherit" d="M482.037 331.858l-4.57-.083-3.477-.083.143-7.275 7.974.133z" class="county feature" vector-effect="non-scaling-stroke"><title>Harper County</title></path><path id="county-20033" fill="inherit" stroke="inherit" stroke-width="inherit" d="M464.35 331.397l-6.729-.229-1.256-.05.237-7.19 7.809.21z" class="county feature" vector-effect="non-scaling-stroke"><title>Comanche County</title></path><path id="county-20099" fill="inherit" stroke="inherit" stroke-width="inherit" d="M522.058 324.784l.203.826.084 6.417-4.936.045-1.696.01-.016-7.255z" class="county feature" vector-effect="non-scaling-stroke"><title>Labette County</title></path><path id="county-20021" fill="inherit" stroke="inherit" stroke-width="inherit" d="M528.98 325.557l.077 5.31.016 1.09-5.752.062-.976.008-.084-6.417z" class="county feature" vector-effect="non-scaling-stroke"><title>Cherokee County</title></path><path id="county-20019" fill="inherit" stroke="inherit" stroke-width="inherit" d="M509.184 326.443l.002 5.66-.535.004-7.752-.018.043-5.733z" class="county feature" vector-effect="non-scaling-stroke"><title>Chautauqua County</title></path></g><path id="counties-mesh" fill="inherit" stroke="inherit" stroke-width="inherit" d="M441.507 273.805l-.434 8.171-9.231-.498-.353-.02m49.79-6.256l-.133 6.565-.033 1.636-7.922-.195-.256-.01.226-8.19m-.226 8.19l-7.69-.231-.307-.011.248-8.182m24.065.569l-.084 6.558-8.021-.134m16.093-6.324l-.08 8.2-2.176-.02-5.84-.083.024-1.64m-39.712-7.712l-.396 8.185-7.69-.382-.296-.015m16.206-7.47l-.353 8.179-7.6-.309-.267-.003m15.879.583l-7.639-.255-.373-.016m48.341-7.186l-.015 8.192-4.889-.023-3.204-.025m20.86-8.156l.045 6.542-3.196.018-3.2.01-.005-6.55m.005 6.55l-.002 1.631-3.517.01-2.897-.007m-73.261-10.403l-.502 8.17-9.054-.544.007-.11.489-8.072 9.06.556 1.214.066 8.022.434.28.017 7.724.371.224.012 7.783.316.041.002 6.32.22 1.587.048 4.832.146 3.143.089 3.266.075 4.852.118 1.557.031 6.415.11 6.42.085 1.568.015 4.848.04 3.18.016 3.242.008h3.154l6.355-.02.448-.004 3.19 2.577 1.293-.692 1.678 1.438-.086 1.77-1.026-.342-1.386 2.315-.865-.54-3.2.02m-28.92 1.51l-.092 4.92-8.008-.147.069-4.91m33.755-1.355l-.067 4.41-.26 3.824-6.389.007-.003-6.59m13.98-1.149l-.67 1.707 1.934 2.138-3.026.023-5.566.04m-85.257 11.283l-1.196-.06-6.89-.38.403-6.578.093-1.62.48-8.188m42.81 2.053l-.303 8.196-7.803-.263-.196-.007.357-8.192m-25.457-1.223l-.499 8.152-1.24-.065-8.149-.464m19.416-7.11l-.423 8.184-1.3-.066-8.304-.48m41.848-6.42l-.213 6.55-.043 1.643-7.85-.237-.144-.002m-15.616-8.787l-.4 8.197-7.978-.398m54.036-6.551l-.102 6.527-.042 1.655-5.855-.065.068-3.282m-8.008-.147l-.044 1.645-8.022-.197m-16.036 1.133l-7.78-.314-.237-.006m51.438-6.905l-2.091 3.054 2.382 4.181 2.428.201-.036 2.44-1.583-.015.003-.549-5.023-.33.048-2.465-1.61-.034m13.271.137l-.093 1.646-.612-1.216-2.274-.288-2.091.674m17.285-4.687l-.032 7.072-4.498-.206-1.402-.164.106-2.838m11.686.226l-1.797-.052-.083 3.987-2.119.198-1.86.349-.033-1.5m-31.351-1.748l-.058 3.283-8-.149.074-4.918m20.463 3.572l-.027 3.28-5.593-.049-1.036-1.8.032-3.154m-13.913 3.069l-.039 1.644-8.009-.18.057-4.937m42.902 1.881l.014 3.524-6.42.015-.007-4.311-1.365-.577m1.372 4.888l.012 2.468-5.872-.008-.537-1.633-1.598-.84m27.23-3.417l-3.813-.232-.506 1.282m-84.7-4.333l-.513 8.158-4.459-.247-5.131-.28.56-8.175m34.981 1.6l-.335 8.22-7.83-.269-.186-.006.404-8.21m-7.976-.32l-.44 8.189-1.346-.076-6.353-.334-1.889-.092m56.71-1.507l-.549 1.087-.084 3.824-6.38-.077.095-6.57m-16.048 1.315l-.101 3.278-7.888-.226-.14-.006m-8.015-.275l-8.013-.341m73.507-4.129l.046 4.592-6.41.045-.013-2.47m-87.503.873l-.492 8.219-6.915-.409.013-.12.41-6.52.094-1.55m67.373 4.294l-7.987-.149.043-4.926m22.684 2.763l-.03 4.099-6.746-.056-1.59-.014.006-1.64m-14.367-.226l-.023 1.644-8.047-.17.003-3.302m43.087-.34l-.08 5.75-6.405.014.064-5.751m-.064 5.751l-.123 4.964-5.787-.062.072-6.562m19.852-16.987l1.297.799-.276 1.436 1.813 1.878 2.49.707-.07.872.02 1.306.044 3.713.014 2.058-6.451.07-.07 6.574-6.415.042-.004-.822m-74.762-6.668l-.405 8.209-6.022-.318-.328-.016.407-8.214m12.701.673l-.325 8.214-6.433-.34m-6.35-.333l-6.043-.316-.37-.02m29.066-6.782l-.242 6.543-.052 1.644-9.326-.384-.25-.012m25.723-3.988l-.119 4.921-6.283-.184-1.74-.057.053-1.642.204-6.566m-.204 6.566l-8.006-.298m32.152-4.065l-.118 8.215-4.8-.08-3.193-.06.101-6.58m15.974.236l-.375 8.234-4.539-.086.015-1.64-3.183-.024m14.756.134l-.022 1.656-2.398-.02-4.629-.02m-15.7-1.89l-8.009-.165-.056-1.664m43.134-1.99l-.122 6.639-6.41-.019v-2.465m-42.885-2.35l-.155 4.915-1.59-.046-4.778-.17.047-1.629-3.179-.12-.09-3.302m-28.755 8.548l-.366 6.55-.447-.027-7.117-.448.306-4.801.102-1.774.591-9.86m13.655.76l-.451 8.2.116 1.757-6.39-.357-.13-1.73.484-8.203m-.353 9.933l-7.522-.5m52.361-5.847l-.165 6.565-7.898-.244-.02-3.301m-7.911-1.919l-.129 3.285-9.58-.411.074-1.64m44.799-.366l-.035 3.3-8.022-.116.089-4.929m25.344 2.742l-.024 5.768.001 2.463-8.271-.082.086-9.04m-17.225 3.078l-.007 3.345-1.596-.006-9.605-.193-.07-1.734m28.417 4.55l-.02 2.463-9.207-.066.11-8.243m-27.198 1.052l-.055 1.74-7.979-.312-.026-3.363m72.137-14.727l.015 4.913.025 1.674-6.561.057-.112 6.646-6.425.036-.071 5.762-6.363-.013m19.655 1.008l-6.877.056-.01-1.094m-74.992-4.73l-.21 8.274-6.4-.291.242-4.924m15.973.716l-.14 5.037-8.076-.46-1.6-.078m54.144 4.604l-.043 5.733-3.313-.027-5.88-.06.03-8.986-9.603-.124.088-4.896m-9.605-.193l-.128 4.932-8.047-.221.152-4.95M447.3 306.92l-.22 4.92-6.362-.325-.078 5.023-6.38-.329-.352 6.565-6.403-.371m12.893-.941l-.08 1.642-6.094-.314-.316-.016m30.532-.26l-.03 1.626-7.81-.21-.128-1.639m25.66.602l-.026 1.658-7.974-.133-1.693-.044.048-1.638m56.277-16.985l.074 6.198.007.435-6.754.07-.092 5.755-6.404.043.033 6.576-6.403-.032.008-4.094m12.777-1.4l.047 5.483-6.36.043h-.07m13.218-12.444l.042 6.863.005.368.08 5.457.007.486-6.719.053-.203-.826m-95-2.41l-.417 7.402-6.972-.383-.211-.022.484-7.445m89.284 2.869l-.042 1.648-8.242-.087.002-3.274m-9.238 8.92l-4.644-.058-5.025-.086.07-7.308m-33.709-2.72l-.125 8.915-8.026-.329.351-7.299-.279-.014m16.283.826l-.237 7.19-6.81-.31-1.282-.064m25.86-6.328l-.143 7.275-2.915-.086-6.725-.21.06-7.257m-30.185-1.35l-.376 7.342-7.208-.355m13.606.64l-4.613-.201-1.785-.084m81.848-5.304l.016 7.254-3.902.015-2.625.007-.002-5.66m-27.147 5.415l-4.57-.083-3.477-.083m-9.64-.295l-6.729-.229-1.256-.05m65.896-5.508l.084 6.417-4.936.045-1.696.01m13.267-6.525l.077 5.31.016 1.09-5.752.062-.976.008m-13.159.076l-.535.004-7.752-.018" class="counties mesh" vector-effect="non-scaling-stroke"/></svg>