<svg xmlns="http://www.w3.org/2000/svg" id="root" version="1.2" viewBox="549.313 143.212 77.547 83.026"><g id="counties"><path id="county-55051" fill="inherit" stroke="inherit" stroke-width="inherit" d="M580.528 150.262l2.458.89 1.622 3.127 2.53.753.364 5.693-1.494.096-3.346.216-.213-3.228-1.587.11-.09-1.609-1.633.088-.337-6.367z" class="county feature" vector-effect="non-scaling-stroke"><title>Iron County</title></path><path id="county-55125" fill="inherit" stroke="inherit" stroke-width="inherit" d="M599.044 161.553l-12.927.846-.109-1.578 1.494-.096-.364-5.693-.018-.217 11.022 2.258 1.36.67.786.384.117 1.703-1.48.108z" class="county feature" vector-effect="non-scaling-stroke"><title>Vilas County</title></path><path id="county-55013" fill="inherit" stroke="inherit" stroke-width="inherit" d="M559.844 158.904l.636 9.64-1.607.07-.06-1.602-4.882.13.05 1.617-4.668.122.546-1.62 1.63-3.135 4.561-2.433.634-2.654z" class="county feature" vector-effect="non-scaling-stroke"><title>Burnett County</title></path><path id="county-55113" fill="inherit" stroke="inherit" stroke-width="inherit" d="M574.41 158.267l.168 3.234 3.217-.185.336 6.397-11.237.591-.599-9.673z" class="county feature" vector-effect="non-scaling-stroke"><title>Sawyer County</title></path><path id="county-55129" fill="inherit" stroke="inherit" stroke-width="inherit" d="M566.295 158.631l.599 9.673-6.414.24-.636-9.64z" class="county feature" vector-effect="non-scaling-stroke"><title>Washburn County</title></path><path id="county-55041" fill="inherit" stroke="inherit" stroke-width="inherit" d="M603.601 158.99l.511 5.41 3.264-.248.476 6.432-3.273.224-3.239.247-.087-1.614-1.607.126-.602-8.014-.118-1.615 1.48-.108-.118-1.703z" class="county feature" vector-effect="non-scaling-stroke"><title>Forest County</title></path><path id="county-55037" fill="inherit" stroke="inherit" stroke-width="inherit" d="M611.077 160.12l-.077 1.848 1.064.71.082 1.258-4.77.216-3.264.248-.511-5.41 1.928-.283 1.578.732z" class="county feature" vector-effect="non-scaling-stroke"><title>Florence County</title></path><path id="county-55099" fill="inherit" stroke="inherit" stroke-width="inherit" d="M586.008 160.82l.109 1.579.39 6.37.226 3.23-8.33.57-.272-4.856-.336-6.397 4.867-.279z" class="county feature" vector-effect="non-scaling-stroke"><title>Price County</title></path><path id="county-55085" fill="inherit" stroke="inherit" stroke-width="inherit" d="M599.044 161.553l.602 8.014-4.945.307-.166-1.639-8.028.535-.39-6.371z" class="county feature" vector-effect="non-scaling-stroke"><title>Oneida County</title></path><path id="county-55095" fill="inherit" stroke="inherit" stroke-width="inherit" d="M558.873 168.613l.302 8.032-7.903.293.11-1.62 1.199-2.761-1.744-2.307-1.45-.098-.074-1.27 4.668-.123-.05-1.617 4.882-.13z" class="county feature" vector-effect="non-scaling-stroke"><title>Polk County</title></path><path id="county-55005" fill="inherit" stroke="inherit" stroke-width="inherit" d="M560.48 168.544l6.414-.24.289 6.448.065 1.595-1.623.05-6.45.248-.302-8.032z" class="county feature" vector-effect="non-scaling-stroke"><title>Barron County</title></path><path id="county-55107" fill="inherit" stroke="inherit" stroke-width="inherit" d="M578.13 167.713l.273 4.857-3.226.144.087 1.634-8.081.404-.289-6.448z" class="county feature" vector-effect="non-scaling-stroke"><title>Rusk County</title></path><path id="county-55069" fill="inherit" stroke="inherit" stroke-width="inherit" d="M594.7 169.874l.436 6.489-8.12.517-.283-4.882-.226-3.228 8.028-.535z" class="county feature" vector-effect="non-scaling-stroke"><title>Lincoln County</title></path><path id="county-55067" fill="inherit" stroke="inherit" stroke-width="inherit" d="M599.646 169.567l1.607-.126.087 1.614 3.239-.247.226 3.238.635 1.595-4.477.326.132 1.663-3.19.223-.12-1.665-2.649.175-.435-6.49z" class="county feature" vector-effect="non-scaling-stroke"><title>Langlade County</title></path><path id="county-55119" fill="inherit" stroke="inherit" stroke-width="inherit" d="M586.733 171.998l.283 4.882-2.024.118.104 1.622-1.544.09-8.004.504-.284-4.866-.087-1.634 3.226-.144z" class="county feature" vector-effect="non-scaling-stroke"><title>Taylor County</title></path><path id="county-55083" fill="inherit" stroke="inherit" stroke-width="inherit" d="M607.852 170.584l1.599-.084.219 3.225 1.614-.062 1.126 3.176 4.803.67-1.596 2.742-.908 2.89-.038.005-.047.005-3.288.233-.34-3.218-3.177.202-.31-4.87-2.07.143-.634-1.595-.226-3.238z" class="county feature" vector-effect="non-scaling-stroke"><title>Oconto County</title></path><path id="county-55017" fill="inherit" stroke="inherit" stroke-width="inherit" d="M575.264 174.348l.284 4.866.188 3.246-9.612.502-.499-6.565 1.623-.05-.065-1.595z" class="county feature" vector-effect="non-scaling-stroke"><title>Chippewa County</title></path><path id="county-55109" fill="inherit" stroke="inherit" stroke-width="inherit" d="M559.175 176.645l.531 6.559-8.364.235-.44-4.044.37-2.457z" class="county feature" vector-effect="non-scaling-stroke"><title>Saint Croix County</title></path><path id="county-55033" fill="inherit" stroke="inherit" stroke-width="inherit" d="M565.625 176.397l.5 6.565.147 3.221-6.415.263-.15-3.242-.532-6.56z" class="county feature" vector-effect="non-scaling-stroke"><title>Dunn County</title></path><path id="county-55073" fill="inherit" stroke="inherit" stroke-width="inherit" d="M587.016 176.88l8.12-.517 2.65-.175.119 1.665.463 6.492-8.213.492-6.232.384-.371-6.51 1.544-.091-.104-1.622z" class="county feature" vector-effect="non-scaling-stroke"><title>Marathon County</title></path><path id="county-55078" fill="inherit" stroke="inherit" stroke-width="inherit" d="M605.44 175.641l2.07-.144.31 4.87-3.256.235-.115-1.62-3.235.25-.119-1.602-.132-1.663z" class="county feature" vector-effect="non-scaling-stroke"><title>Menominee County</title></path><path id="county-55019" fill="inherit" stroke="inherit" stroke-width="inherit" d="M583.552 178.71l.37 6.51.297 4.869-6.452.4-.088-1.616-1.605.08-.077-1.618-.261-4.875-.188-3.246z" class="county feature" vector-effect="non-scaling-stroke"><title>Clark County</title></path><path id="county-55115" fill="inherit" stroke="inherit" stroke-width="inherit" d="M601.095 177.63l.119 1.602 3.235-.25.115 1.62 3.255-.234 3.177-.202.34 3.218.106 1.772-4.775.274-.113-1.64-8.186.555-.463-6.492z" class="county feature" vector-effect="non-scaling-stroke"><title>Shawano County</title></path><path id="county-55093" fill="inherit" stroke="inherit" stroke-width="inherit" d="M559.706 183.204l.151 3.242.105 2.708-2.4.068-3.105-.393-2.523-2.647-.975-.582.383-2.161z" class="county feature" vector-effect="non-scaling-stroke"><title>Pierce County</title></path><path id="county-55035" fill="inherit" stroke="inherit" stroke-width="inherit" d="M575.736 182.46l.26 4.875-3.224.158-4.817.25-1.604.066-.08-1.626-.147-3.221z" class="county feature" vector-effect="non-scaling-stroke"><title>Eau Claire County</title></path><path id="county-55097" fill="inherit" stroke="inherit" stroke-width="inherit" d="M598.368 184.345l.575 8.177-4.97.304-1.688.077-.35-4.923-1.56.097-.22-3.24z" class="county feature" vector-effect="non-scaling-stroke"><title>Portage County</title></path><path id="county-55141" fill="inherit" stroke="inherit" stroke-width="inherit" d="M590.155 184.837l.22 3.24 1.56-.097.35 4.923-2.367.12-5.454.352-.245-3.286-.296-4.868z" class="county feature" vector-effect="non-scaling-stroke"><title>Wood County</title></path><path id="county-55009" fill="inherit" stroke="inherit" stroke-width="inherit" d="M614.67 183.146l.039-.005-.038.005zm-3.334.238l3.288-.233-.544 2.168 1.626.398 2.028-2.21.466 5.92-1.615.13.134 1.63-2.061.163-1.986.147-.506-6.437-.724.096z" class="county feature" vector-effect="non-scaling-stroke"><title>Brown County</title></path><path id="county-55091" fill="inherit" stroke="inherit" stroke-width="inherit" d="M566.272 186.183l.08 1.626-5.017.414-.585 3.378-2.139-.794-1.05-1.585 2.401-.068-.105-2.708z" class="county feature" vector-effect="non-scaling-stroke"><title>Pepin County</title></path><path id="county-55135" fill="inherit" stroke="inherit" stroke-width="inherit" d="M606.667 185.43l-1.728.133.453 6.487-1.95.16-4.5.312-.574-8.177 8.186-.555z" class="county feature" vector-effect="non-scaling-stroke"><title>Waupaca County</title></path><path id="county-55061" fill="inherit" stroke="inherit" stroke-width="inherit" d="M622.795 182.47l-1.154 3.201-.493 3.49-2.948.267-.466-5.92.293-.64z" class="county feature" vector-effect="non-scaling-stroke"><title>Kewaunee County</title></path><path id="county-55011" fill="inherit" stroke="inherit" stroke-width="inherit" d="M566.351 187.81l1.604-.067.298 6.537-1.008.908 1.078 1.915-.269 1.34-4.138-2.959-1.462-3.039-1.704-.844.585-3.378z" class="county feature" vector-effect="non-scaling-stroke"><title>Buffalo County</title></path><path id="county-55121" fill="inherit" stroke="inherit" stroke-width="inherit" d="M572.772 187.493l.675 9.667-2.062.38-.127 1.515-1.373.07-1.83-.682.268-1.34-1.078-1.915 1.008-.908-.298-6.537z" class="county feature" vector-effect="non-scaling-stroke"><title>Trempealeau County</title></path><path id="county-55053" fill="inherit" stroke="inherit" stroke-width="inherit" d="M575.997 187.335l.077 1.619 1.605-.081.088 1.617 6.452-.401.245 3.286.104 1.748-7.918.393-.813 1.686-2.39-.042-.675-9.667z" class="county feature" vector-effect="non-scaling-stroke"><title>Jackson County</title></path><path id="county-55087" fill="inherit" stroke="inherit" stroke-width="inherit" d="M606.667 185.43l4.775-.274.724-.096.506 6.437-2.814.188-4.466.365-.453-6.487z" class="county feature" vector-effect="non-scaling-stroke"><title>Outagamie County</title></path><path id="county-55071" fill="inherit" stroke="inherit" stroke-width="inherit" d="M618.2 189.428l2.948-.267.323 3.14-1.267 1.07-.853 4.137-4.127.364-.566-6.522 2.061-.164-.134-1.628z" class="county feature" vector-effect="non-scaling-stroke"><title>Manitowoc County</title></path><path id="county-55057" fill="inherit" stroke="inherit" stroke-width="inherit" d="M589.918 193.023l.097 1.208-1.59 1.89.913 1.736.223 2.216 1.412 1.628 1.243 2.603-7.071.444-.101-1.691-.476-7.934-.104-1.748z" class="county feature" vector-effect="non-scaling-stroke"><title>Juneau County</title></path><path id="county-55001" fill="inherit" stroke="inherit" stroke-width="inherit" d="M592.285 192.903l1.688-.077.333 4.926.41 6.356-2.5.196-1.243-2.603-1.412-1.628-.223-2.216-.913-1.736 1.59-1.89-.097-1.208z" class="county feature" vector-effect="non-scaling-stroke"><title>Adams County</title></path><path id="county-55137" fill="inherit" stroke="inherit" stroke-width="inherit" d="M598.943 192.522l4.498-.312.373 4.846-3.771.285-5.737.411-.333-4.926z" class="county feature" vector-effect="non-scaling-stroke"><title>Waushara County</title></path><path id="county-55139" fill="inherit" stroke="inherit" stroke-width="inherit" d="M609.858 191.685l.453 5.715.077.844-6.446.457-.128-1.645-.373-4.846 1.951-.16z" class="county feature" vector-effect="non-scaling-stroke"><title>Winnebago County</title></path><path id="county-55015" fill="inherit" stroke="inherit" stroke-width="inherit" d="M612.672 191.497l1.986-.147.566 6.522-1.61.139-.062-.866-3.241.255-.453-5.715z" class="county feature" vector-effect="non-scaling-stroke"><title>Calumet County</title></path><path id="county-55081" fill="inherit" stroke="inherit" stroke-width="inherit" d="M584.568 195.123l.476 7.934-8.017.566-.385-6.475-.805.054.813-1.686z" class="county feature" vector-effect="non-scaling-stroke"><title>Monroe County</title></path><path id="county-55063" fill="inherit" stroke="inherit" stroke-width="inherit" d="M573.447 197.16l2.39.042.805-.054.385 6.475-4.651.184-.477-2.205-2.014-2.477 1.373-.07.127-1.515z" class="county feature" vector-effect="non-scaling-stroke"><title>La Crosse County</title></path><path id="county-55047" fill="inherit" stroke="inherit" stroke-width="inherit" d="M603.814 197.056l.128 1.645.362 4.893-1.622.131-3.212.044.573-6.428z" class="county feature" vector-effect="non-scaling-stroke"><title>Green Lake County</title></path><path id="county-55077" fill="inherit" stroke="inherit" stroke-width="inherit" d="M600.043 197.341l-.573 6.428-4.755.339-.41-6.356z" class="county feature" vector-effect="non-scaling-stroke"><title>Marquette County</title></path><path id="county-55039" fill="inherit" stroke="inherit" stroke-width="inherit" d="M613.614 198.01l.557 6.512-3.216.25-.14-1.63-6.51.452-.363-4.893 6.446-.457-.077-.844 3.24-.255z" class="county feature" vector-effect="non-scaling-stroke"><title>Fond du Lac County</title></path><path id="county-55117" fill="inherit" stroke="inherit" stroke-width="inherit" d="M619.351 197.508l.736 3.774-.972 2.82-3.333.297-1.61.123-.558-6.511 1.61-.14z" class="county feature" vector-effect="non-scaling-stroke"><title>Sheboygan County</title></path><path id="county-55123" fill="inherit" stroke="inherit" stroke-width="inherit" d="M585.145 204.748l.117 1.627-4.85.3.18 2.433-7.238.387-.238-1.445-.8-2.14.06-2.103 4.651-.184 8.017-.566z" class="county feature" vector-effect="non-scaling-stroke"><title>Vernon County</title></path><path id="county-55021" fill="inherit" stroke="inherit" stroke-width="inherit" d="M602.682 203.725l.451 6.518-9.609.52 1.503-1.747-.197-3.354-1.74-.06-.874-1.298 2.5-.196 4.754-.339z" class="county feature" vector-effect="non-scaling-stroke"><title>Columbia County</title></path><path id="county-55111" fill="inherit" stroke="inherit" stroke-width="inherit" d="M592.216 204.304l.875 1.298 1.739.06.197 3.354-1.503 1.747-1.488 1.732-4.76 1.082-.413-7.318-1.601.116-.117-1.627z" class="county feature" vector-effect="non-scaling-stroke"><title>Sauk County</title></path><path id="county-55027" fill="inherit" stroke="inherit" stroke-width="inherit" d="M610.955 204.772l.285 6.545-1.596.102-6.386.455-.125-1.631-.451-6.518 1.622-.13 6.51-.454z" class="county feature" vector-effect="non-scaling-stroke"><title>Dodge County</title></path><path id="county-55103" fill="inherit" stroke="inherit" stroke-width="inherit" d="M587.277 213.577l-3.225-.492-3.172.73-.289-4.707-.18-2.433 4.85-.3 1.602-.116z" class="county feature" vector-effect="non-scaling-stroke"><title>Richland County</title></path><path id="county-55089" fill="inherit" stroke="inherit" stroke-width="inherit" d="M619.115 204.101l-1.128 5.49.345 1.19-2.306.193-.244-6.575z" class="county feature" vector-effect="non-scaling-stroke"><title>Ozaukee County</title></path><path id="county-55131" fill="inherit" stroke="inherit" stroke-width="inherit" d="M614.171 204.522l1.61-.123.245 6.575-4.786.343-.285-6.545z" class="county feature" vector-effect="non-scaling-stroke"><title>Washington County</title></path><path id="county-55023" fill="inherit" stroke="inherit" stroke-width="inherit" d="M580.591 209.108l.289 4.706-5.22 3.662-1.237.137-.36-1.712 1.43-3.41-2.056-1.627-.083-1.37z" class="county feature" vector-effect="non-scaling-stroke"><title>Crawford County</title></path><path id="county-55025" fill="inherit" stroke="inherit" stroke-width="inherit" d="M603.133 210.243l.125 1.631.42 6.566-4.826.39-6.392.198-.424-6.533 1.488-1.732z" class="county feature" vector-effect="non-scaling-stroke"><title>Dane County</title></path><path id="county-55049" fill="inherit" stroke="inherit" stroke-width="inherit" d="M587.277 213.577l4.76-1.082.423 6.533.053.817-7.995.512-.466-7.272z" class="county feature" vector-effect="non-scaling-stroke"><title>Iowa County</title></path><path id="county-55043" fill="inherit" stroke="inherit" stroke-width="inherit" d="M584.052 213.085l.466 7.272.342 5.736-2.928.145-.971-2.25-2.698-.687-2.369-1.325-1.471-4.363 1.237-.137 5.22-3.662z" class="county feature" vector-effect="non-scaling-stroke"><title>Grant County</title></path><path id="county-55055" fill="inherit" stroke="inherit" stroke-width="inherit" d="M609.644 211.42l.447 6.615-3.195.252-3.218.153-.42-6.566z" class="county feature" vector-effect="non-scaling-stroke"><title>Jefferson County</title></path><path id="county-55133" fill="inherit" stroke="inherit" stroke-width="inherit" d="M611.24 211.317l4.786-.343.464 6.534-3.207.288-3.192.239-.447-6.616z" class="county feature" vector-effect="non-scaling-stroke"><title>Waukesha County</title></path><path id="county-55079" fill="inherit" stroke="inherit" stroke-width="inherit" d="M618.332 210.78l1.456 6.469-3.298.26-.464-6.535z" class="county feature" vector-effect="non-scaling-stroke"><title>Milwaukee County</title></path><path id="county-55045" fill="inherit" stroke="inherit" stroke-width="inherit" d="M598.852 218.83l.49 6.46-.48.03-5.964.302-.385-5.777-.053-.817z" class="county feature" vector-effect="non-scaling-stroke"><title>Green County</title></path><path id="county-55105" fill="inherit" stroke="inherit" stroke-width="inherit" d="M603.678 218.44l3.218-.153.505 6.57-2.237.111-5.821.322-.491-6.46z" class="county feature" vector-effect="non-scaling-stroke"><title>Rock County</title></path><path id="county-55127" fill="inherit" stroke="inherit" stroke-width="inherit" d="M610.091 218.035l3.192-.24.356 4.332.196 2.175-5.491.454-.943.1-.505-6.569z" class="county feature" vector-effect="non-scaling-stroke"><title>Walworth County</title></path><path id="county-55101" fill="inherit" stroke="inherit" stroke-width="inherit" d="M619.788 217.249l.994 1.005-.43 2.23-5.196.408.09 1.094-1.607.14-.356-4.33 3.207-.288z" class="county feature" vector-effect="non-scaling-stroke"><title>Racine County</title></path><path id="county-55065" fill="inherit" stroke="inherit" stroke-width="inherit" d="M592.513 219.845l.385 5.777-1.205.077-6.833.394-.342-5.736z" class="county feature" vector-effect="non-scaling-stroke"><title>Lafayette County</title></path><path id="county-55059" fill="inherit" stroke="inherit" stroke-width="inherit" d="M620.352 220.485l.298 3.283-5.347.405-1.468.129-.196-2.175 1.607-.14-.09-1.095z" class="county feature" vector-effect="non-scaling-stroke"><title>Kenosha County</title></path><path id="county-55031" fill="inherit" stroke="inherit" stroke-width="inherit" d="M565.774 147.494l.521 11.137-6.45.273-3.161.135-.18-4.84-.173-4.576 1.155.01 1.145-1.595 1.412 1.084 2.34-.252z" class="county feature" vector-effect="non-scaling-stroke"><title>Douglas County</title></path><path id="county-55007" fill="inherit" stroke="inherit" stroke-width="inherit" d="M573.945 150.26l.465 8.007-8.115.364-.521-11.137 3.753-1.74 1.85-.428 2.983-2.114 1.488 1.125-1.53 2.724.476 1.028z" class="county feature" vector-effect="non-scaling-stroke"><title>Bayfield County</title></path><path id="county-55003" fill="inherit" stroke="inherit" stroke-width="inherit" d="M578.802 150.031l.337 6.367 1.633-.088.09 1.609 1.587-.11.213 3.228-4.867.279-3.217.185-.168-3.234-.465-8.008 2.825-1.636zm-1.1-5.358l.574.459-2.665 1.922z" class="county feature" vector-effect="non-scaling-stroke"><title>Ashland County</title></path><path id="county-55075" fill="inherit" stroke="inherit" stroke-width="inherit" d="M614.898 163.526l.928.836-.51 2.16.643 1.061-.996 2.856 3.146-.028-1.003 2.76 1.795 1.654.027 2.184-1.715.5-4.803-.67-1.126-3.176-1.614.062-.22-3.225-1.598.084-.476-6.432 4.77-.216-.082-1.258z" class="county feature" vector-effect="non-scaling-stroke"><title>Marinette County</title></path><path id="county-55029" fill="inherit" stroke="inherit" stroke-width="inherit" d="M622.795 182.47l-4.768.398 1.372-3.114 2.577-1.529 1.783-5.069 1.505-.634.494-1.96 1.101-.111-2.118 6.336-.046 1.76-1.355 1.783z" class="county feature" vector-effect="non-scaling-stroke"><title>Door County</title></path></g><path id="counties-mesh" fill="inherit" stroke="inherit" stroke-width="inherit" d="M600.288 158.127l.117 1.703-1.48.108.12 1.615-12.928.846-.109-1.578m-20.234-13.327l3.753-1.74 1.85-.428 2.983-2.114 1.488 1.125-1.53 2.724.476 1.028-.85 2.17.466 8.008.168 3.234 3.217-.185.336 6.397-11.237.591-.599-9.673 8.115-.364m-7.516 10.037l-6.414.24m-3.796-9.505l3.16-.135.636 9.64-1.607.07-.06-1.602-4.882.13.05 1.617-4.668.122.546-1.62 1.63-3.135 4.561-2.433.634-2.654-.18-4.84-.173-4.576 1.155.01 1.145-1.595 1.412 1.084 2.34-.252 3.39-1.376.522 11.137m37.306.36l.511 5.409 3.264-.248.476 6.432-3.273.224-3.239.247-.087-1.614-1.607.126-.602-8.014m13.02 1.125l.082 1.258-4.77.216m-21.26-1.753l.391 6.37.226 3.23-8.33.57-.272-4.856m-.336-6.397l4.867-.279m16.984 8.53l-4.945.307-.166-1.639-8.028.535m-27.634-.157l.302 8.032-7.903.293.11-1.62 1.199-2.761-1.744-2.307-1.45-.098-.074-1.27m29.09 3.688l-3.226.144.087 1.634-8.081.404m27.518-4.878l.435 6.489-8.12.517-.283-4.882m17.846-1.19l.226 3.238.635 1.595-4.477.326.132 1.663-3.19.223-.12-1.665-2.649.175m-8.12.517l-2.024.118.104 1.622-1.544.09-8.004.504-.284-4.866m32.588-3.764l1.599-.084.219 3.225 1.614-.062 1.126 3.176 4.803.67-1.596 2.742-.908 2.89-.038.005-.047.005-3.288.233-.34-3.218-3.177.202-.31-4.87-2.07.143m-45.582 10.805l.105 2.708-2.4.068-3.105-.393-2.523-2.647-.975-.582.383-2.161-.44-4.044.37-2.457m24.276 2.276l.188 3.246-9.612.502-.499-6.565m1.269-8.093l.289 6.448.065 1.595-1.623.05-6.45.248.531 6.559-8.364.235m14.782-.477l.148 3.221-6.415.263-.15-3.242m38.198-5.35l.463 6.491-8.213.492-6.232.384-.371-6.51m24.267 1.657l-3.255.234-.115-1.62-3.235.25-.119-1.602m-17.172 7.59l.296 4.869-6.452.4-.088-1.616-1.605.08-.077-1.618-.261-4.875m.26 4.875l-3.224.158-4.817.25-1.604.066-.08-1.626m.08 1.626l-5.016.414-.585 3.378-2.139-.794-1.05-1.585m53.775-5.838l.106 1.772-4.775.274-.113-1.64-8.186.555.575 8.177-4.97.304-1.688.077-.35-4.923-1.56.097-.22-3.24m2.13 8.066l-2.367.12-5.454.352-.245-3.286m30.49-6.948l-.038.005m-.047.005l-.544 2.168 1.626.398 2.028-2.21.466 5.92-1.615.13.134 1.63-2.061.163-1.986.147-.506-6.437-.724.096m-4.775.274l-1.728.133.453 6.487-1.95.16-4.5.312m18.792-9.015l.293-.639 4.768-.398-1.154 3.201-.493 3.49-2.948.267m-50.245-1.685l.298 6.537-1.008.908 1.078 1.915-.269 1.34-4.138-2.959-1.462-3.039-1.704-.844m12.022-4.108l.675 9.667-2.062.38-.127 1.515-1.373.07-1.83-.682m16.409-5.068l.104 1.748-7.918.393-.813 1.686-2.39-.042m39.225-5.663l-2.814.188-4.466.365m15.756-2.889l.323 3.14-1.267 1.07-.853 4.137-4.127.364-.566-6.522m-24.74 1.673l.097 1.208-1.59 1.89.913 1.736.223 2.216 1.412 1.628 1.243 2.603-7.071.444-.101-1.691-.476-7.934m18.114 8.602l.451 6.518-9.609.52 1.503-1.747-.197-3.354-1.74-.06-.874-1.298m11.225-12.094l.373 4.846-3.771.285-5.737.411m15.552-6.067l.453 5.715.077.844-6.446.457-.128-1.645m11.41.816l-1.61.139-.062-.866-3.241.255m-33.284 6.223l-4.651.184-.477-2.205-2.014-2.477m15.159 3.932l-8.017.566-.385-6.475-.805.054m28.105 1.5l.362 4.892-1.622.131-3.212.044.573-6.428m-.573 6.428l-4.755.339m18.899-6.097l.557 6.51-3.216.251-.14-1.63-6.51.452m15.046-6.086l.736 3.774-.972 2.82-3.333.297-1.61.123m-29.027.226l.117 1.627-4.85.3.18 2.433-7.238.387-.238-1.445-.8-2.14.06-2.103m21.148 6.956l-1.488 1.732-4.76 1.082-.413-7.318-1.601.116m25.693-1.603l.285 6.545-1.596.102-6.386.455-.125-1.631m-15.856 3.334l-3.225-.492-3.172.73-.289-4.707m38.524-5.007l-1.128 5.49.345 1.19-2.306.193-.244-6.575m.244 6.575l-4.786.343m-30.36 2.497l-5.22 3.662-1.237.137-.36-1.712 1.43-3.41-2.056-1.627-.083-1.37m29.904 2.38l.42 6.566-4.826.39-6.392.198-.424-6.533m.424 6.533l.053.817-7.995.512-.466-7.272m.466 7.272l.342 5.736-2.928.145-.971-2.25-2.698-.687-2.369-1.325-1.471-4.363m35.221-6.194l.447 6.616-3.195.252-3.218.153m12.348-7.466l.464 6.534-3.207.288-3.192.239m8.241-7.254l1.456 6.468-3.298.26m-17.638 1.322l.49 6.459-.48.03-5.964.302-.385-5.777m14.383-1.558l.505 6.57-2.237.111-5.821.322m13.94-7.494l.356 4.33.196 2.176-5.491.454-.943.1m12.387-7.607l.994 1.005-.43 2.23-5.196.408.09 1.094-1.607.14m-20.74 3.496l-1.206.077-6.833.394m35.492-5.608l.298 3.283-5.347.405-1.468.129m-39.89-74.043l2.825-1.636 2.032 1.408m-1.1-5.358l.574.459-2.665 1.922 2.09-2.38m9.437 10.358l.364 5.693-1.494.096-3.346.216-.213-3.228-1.587.11-.09-1.609-1.633.088-.337-6.367 1.726.231 2.458.89 1.622 3.127 2.53.753-.018-.217 11.022 2.258 1.36.67.786.384 3.313.864 1.928-.284 1.578.732 3.97.681-.077 1.848 1.064.71 2.834.848.928.836-.51 2.16.643 1.061-.996 2.856 3.146-.028-1.003 2.76 1.795 1.654.027 2.184-1.715.5m.814 5.36l1.372-3.115 2.577-1.529 1.783-5.069 1.505-.634.494-1.96 1.101-.111-2.118 6.336-.046 1.76-1.355 1.783-.545 2.14m-62.95-23.566l6.45-.273m27.678 34.195l.333 4.926.41 6.356-2.5.196" class="counties mesh" vector-effect="non-scaling-stroke"/></svg>